<svg viewBox="0 0 256 256" fill="none" xmlns="http://www.w3.org/2000/svg">
  <path 
    d="M128 20L145 50L175 40L185 70L215 75L205 105L230 128L205 151L215 181L185 186L175 216L145 206L128 236L111 206L81 216L71 186L41 181L51 151L26 128L51 105L41 75L71 70L81 40L111 50L128 20Z" 
    fill="#D97706"
  />
  <path 
    d="M128 80C100 80 85 100 85 130C85 160 100 185 128 185C156 185 171 160 171 130C171 100 156 80 128 80Z" 
    fill="#FBBF24"
  />
  <circle cx="110" cy="125" r="4" fill="#111827" />
  <circle cx="146" cy="125" r="4" fill="#111827" />
  <path d="M128 145L135 152H121L128 145Z" fill="#78350F" />
</svg>
